<mxfile host="app.diagrams.net" modified="2021-04-01T18:46:57.324Z" agent="5.0 (Windows NT 10.0; Win64; x64) AppleWebKit/537.36 (KHTML, like Gecko) Chrome/89.0.4389.90 Safari/537.36" etag="cv0imvZZ08FWhwSt_ucr" version="14.5.4" type="github">
  <diagram id="C5RBs43oDa-KdzZeNtuy" name="Page-1">
    <mxGraphModel dx="1349" dy="850" grid="0" gridSize="10" guides="1" tooltips="1" connect="1" arrows="1" fold="1" page="0" pageScale="1" pageWidth="827" pageHeight="1169" background="none" math="0" shadow="0">
      <root>
        <mxCell id="WIyWlLk6GJQsqaUBKTNV-0" />
        <mxCell id="WIyWlLk6GJQsqaUBKTNV-1" parent="WIyWlLk6GJQsqaUBKTNV-0" />
        <mxCell id="J0-ND052Ys1qhIWFqs_n-14" style="edgeStyle=orthogonalEdgeStyle;rounded=0;orthogonalLoop=1;jettySize=auto;html=1;entryX=0;entryY=0.5;entryDx=0;entryDy=0;" parent="WIyWlLk6GJQsqaUBKTNV-1" source="J0-ND052Ys1qhIWFqs_n-4" target="J0-ND052Ys1qhIWFqs_n-13" edge="1">
          <mxGeometry relative="1" as="geometry" />
        </mxCell>
        <mxCell id="J0-ND052Ys1qhIWFqs_n-28" style="edgeStyle=orthogonalEdgeStyle;rounded=0;orthogonalLoop=1;jettySize=auto;html=1;entryX=0.5;entryY=0;entryDx=0;entryDy=0;" parent="WIyWlLk6GJQsqaUBKTNV-1" source="J0-ND052Ys1qhIWFqs_n-4" target="J0-ND052Ys1qhIWFqs_n-26" edge="1">
          <mxGeometry relative="1" as="geometry" />
        </mxCell>
        <mxCell id="J0-ND052Ys1qhIWFqs_n-4" value="DB" style="shape=cylinder3;whiteSpace=wrap;html=1;boundedLbl=1;backgroundOutline=1;size=15;" parent="WIyWlLk6GJQsqaUBKTNV-1" vertex="1">
          <mxGeometry x="45" y="160" width="70" height="80" as="geometry" />
        </mxCell>
        <mxCell id="J0-ND052Ys1qhIWFqs_n-6" style="edgeStyle=orthogonalEdgeStyle;rounded=0;orthogonalLoop=1;jettySize=auto;html=1;" parent="WIyWlLk6GJQsqaUBKTNV-1" source="J0-ND052Ys1qhIWFqs_n-5" target="J0-ND052Ys1qhIWFqs_n-4" edge="1">
          <mxGeometry relative="1" as="geometry" />
        </mxCell>
        <mxCell id="J0-ND052Ys1qhIWFqs_n-5" value="Preprocssing&lt;br&gt;Data" style="rounded=0;whiteSpace=wrap;html=1;" parent="WIyWlLk6GJQsqaUBKTNV-1" vertex="1">
          <mxGeometry x="35" y="70" width="90" height="60" as="geometry" />
        </mxCell>
        <mxCell id="J0-ND052Ys1qhIWFqs_n-41" style="edgeStyle=orthogonalEdgeStyle;rounded=0;orthogonalLoop=1;jettySize=auto;html=1;entryX=0;entryY=0.5;entryDx=0;entryDy=0;fontSize=14;" parent="WIyWlLk6GJQsqaUBKTNV-1" source="J0-ND052Ys1qhIWFqs_n-13" target="J0-ND052Ys1qhIWFqs_n-40" edge="1">
          <mxGeometry relative="1" as="geometry" />
        </mxCell>
        <mxCell id="J0-ND052Ys1qhIWFqs_n-13" value="Tokenizing&lt;br&gt;(Mecab)" style="rounded=0;whiteSpace=wrap;html=1;" parent="WIyWlLk6GJQsqaUBKTNV-1" vertex="1">
          <mxGeometry x="183.5" y="170" width="90" height="60" as="geometry" />
        </mxCell>
        <mxCell id="J0-ND052Ys1qhIWFqs_n-43" style="edgeStyle=orthogonalEdgeStyle;rounded=0;orthogonalLoop=1;jettySize=auto;html=1;entryX=1;entryY=0.5;entryDx=0;entryDy=0;fontSize=14;" parent="WIyWlLk6GJQsqaUBKTNV-1" source="J0-ND052Ys1qhIWFqs_n-17" target="J0-ND052Ys1qhIWFqs_n-19" edge="1">
          <mxGeometry relative="1" as="geometry">
            <Array as="points">
              <mxPoint x="515" y="290" />
            </Array>
          </mxGeometry>
        </mxCell>
        <mxCell id="J0-ND052Ys1qhIWFqs_n-57" style="edgeStyle=orthogonalEdgeStyle;rounded=0;orthogonalLoop=1;jettySize=auto;html=1;entryX=0.5;entryY=0;entryDx=0;entryDy=0;fontSize=14;" parent="WIyWlLk6GJQsqaUBKTNV-1" source="J0-ND052Ys1qhIWFqs_n-17" target="J0-ND052Ys1qhIWFqs_n-55" edge="1">
          <mxGeometry relative="1" as="geometry" />
        </mxCell>
        <mxCell id="J0-ND052Ys1qhIWFqs_n-17" value="Sentence&lt;br&gt;Clustering&lt;br&gt;(K = 8, 17)" style="rounded=0;whiteSpace=wrap;html=1;" parent="WIyWlLk6GJQsqaUBKTNV-1" vertex="1">
          <mxGeometry x="480" y="260" width="90" height="60" as="geometry" />
        </mxCell>
        <mxCell id="J0-ND052Ys1qhIWFqs_n-22" style="edgeStyle=orthogonalEdgeStyle;rounded=0;orthogonalLoop=1;jettySize=auto;html=1;entryX=1;entryY=0.5;entryDx=0;entryDy=0;" parent="WIyWlLk6GJQsqaUBKTNV-1" source="J0-ND052Ys1qhIWFqs_n-19" target="J0-ND052Ys1qhIWFqs_n-21" edge="1">
          <mxGeometry relative="1" as="geometry" />
        </mxCell>
        <mxCell id="J0-ND052Ys1qhIWFqs_n-19" value="Keyword Extraction&lt;br&gt;(Mecab)" style="rounded=0;whiteSpace=wrap;html=1;" parent="WIyWlLk6GJQsqaUBKTNV-1" vertex="1">
          <mxGeometry x="330" y="260" width="90" height="60" as="geometry" />
        </mxCell>
        <mxCell id="J0-ND052Ys1qhIWFqs_n-53" style="edgeStyle=orthogonalEdgeStyle;rounded=0;orthogonalLoop=1;jettySize=auto;html=1;fontSize=14;entryX=0.5;entryY=0;entryDx=0;entryDy=0;" parent="WIyWlLk6GJQsqaUBKTNV-1" source="J0-ND052Ys1qhIWFqs_n-21" target="J0-ND052Ys1qhIWFqs_n-54" edge="1">
          <mxGeometry relative="1" as="geometry">
            <mxPoint x="229" y="400" as="targetPoint" />
          </mxGeometry>
        </mxCell>
        <mxCell id="J0-ND052Ys1qhIWFqs_n-21" value="Comprehensive&lt;br&gt;Keyword&lt;br&gt;Extraction" style="rounded=0;whiteSpace=wrap;html=1;" parent="WIyWlLk6GJQsqaUBKTNV-1" vertex="1">
          <mxGeometry x="184" y="260" width="90" height="60" as="geometry" />
        </mxCell>
        <mxCell id="J0-ND052Ys1qhIWFqs_n-49" style="edgeStyle=orthogonalEdgeStyle;rounded=0;orthogonalLoop=1;jettySize=auto;html=1;entryX=0.5;entryY=1;entryDx=0;entryDy=0;entryPerimeter=0;fontSize=14;" parent="WIyWlLk6GJQsqaUBKTNV-1" source="J0-ND052Ys1qhIWFqs_n-26" target="J0-ND052Ys1qhIWFqs_n-48" edge="1">
          <mxGeometry relative="1" as="geometry">
            <Array as="points">
              <mxPoint x="80" y="470" />
              <mxPoint x="723" y="470" />
            </Array>
          </mxGeometry>
        </mxCell>
        <mxCell id="J0-ND052Ys1qhIWFqs_n-51" value="&lt;font style=&quot;font-size: 12px&quot;&gt;Output&lt;br&gt;Pretrained Model&lt;/font&gt;" style="edgeLabel;html=1;align=center;verticalAlign=middle;resizable=0;points=[];fontSize=14;" parent="J0-ND052Ys1qhIWFqs_n-49" vertex="1" connectable="0">
          <mxGeometry x="-0.1689" relative="1" as="geometry">
            <mxPoint x="-1.1800000000000068" y="20" as="offset" />
          </mxGeometry>
        </mxCell>
        <mxCell id="J0-ND052Ys1qhIWFqs_n-26" value="Sentiment&lt;br&gt;Analysis&lt;br&gt;(KoELECTRA)" style="rounded=0;whiteSpace=wrap;html=1;" parent="WIyWlLk6GJQsqaUBKTNV-1" vertex="1">
          <mxGeometry x="35" y="350" width="90" height="60" as="geometry" />
        </mxCell>
        <mxCell id="J0-ND052Ys1qhIWFqs_n-31" value="&lt;font style=&quot;font-size: 16px&quot;&gt;Make Pretrained Model&lt;/font&gt;" style="text;html=1;resizable=0;autosize=1;align=center;verticalAlign=middle;points=[];fillColor=none;strokeColor=none;rounded=0;fontSize=14;labelBorderColor=none;spacingLeft=2;spacingRight=2;" parent="WIyWlLk6GJQsqaUBKTNV-1" vertex="1">
          <mxGeometry x="10" y="40" width="180" height="20" as="geometry" />
        </mxCell>
        <mxCell id="J0-ND052Ys1qhIWFqs_n-42" style="edgeStyle=orthogonalEdgeStyle;rounded=0;orthogonalLoop=1;jettySize=auto;html=1;entryX=0;entryY=0.5;entryDx=0;entryDy=0;fontSize=14;" parent="WIyWlLk6GJQsqaUBKTNV-1" source="J0-ND052Ys1qhIWFqs_n-40" target="J0-ND052Ys1qhIWFqs_n-44" edge="1">
          <mxGeometry relative="1" as="geometry" />
        </mxCell>
        <mxCell id="J0-ND052Ys1qhIWFqs_n-50" style="edgeStyle=orthogonalEdgeStyle;rounded=0;orthogonalLoop=1;jettySize=auto;html=1;entryX=0.5;entryY=0;entryDx=0;entryDy=0;entryPerimeter=0;fontSize=14;" parent="WIyWlLk6GJQsqaUBKTNV-1" source="J0-ND052Ys1qhIWFqs_n-40" target="J0-ND052Ys1qhIWFqs_n-48" edge="1">
          <mxGeometry relative="1" as="geometry">
            <Array as="points">
              <mxPoint x="375" y="130" />
              <mxPoint x="723" y="130" />
            </Array>
          </mxGeometry>
        </mxCell>
        <mxCell id="J0-ND052Ys1qhIWFqs_n-61" value="&lt;font style=&quot;font-size: 12px&quot;&gt;Output&lt;br&gt;Pretrained Model&lt;/font&gt;" style="edgeLabel;html=1;align=center;verticalAlign=middle;resizable=0;points=[];fontSize=14;" parent="J0-ND052Ys1qhIWFqs_n-50" vertex="1" connectable="0">
          <mxGeometry x="-0.6228" y="-2" relative="1" as="geometry">
            <mxPoint x="-17" y="-32" as="offset" />
          </mxGeometry>
        </mxCell>
        <mxCell id="J0-ND052Ys1qhIWFqs_n-40" value="Word&lt;br&gt;Embedding&lt;br&gt;(FastText)" style="rounded=0;whiteSpace=wrap;html=1;" parent="WIyWlLk6GJQsqaUBKTNV-1" vertex="1">
          <mxGeometry x="330" y="170" width="90" height="60" as="geometry" />
        </mxCell>
        <mxCell id="J0-ND052Ys1qhIWFqs_n-45" style="edgeStyle=orthogonalEdgeStyle;rounded=0;orthogonalLoop=1;jettySize=auto;html=1;entryX=0.5;entryY=0;entryDx=0;entryDy=0;fontSize=14;" parent="WIyWlLk6GJQsqaUBKTNV-1" source="J0-ND052Ys1qhIWFqs_n-44" target="J0-ND052Ys1qhIWFqs_n-17" edge="1">
          <mxGeometry relative="1" as="geometry" />
        </mxCell>
        <mxCell id="J0-ND052Ys1qhIWFqs_n-44" value="&lt;span style=&quot;font-family: &amp;#34;noto sans&amp;#34; , &amp;#34;noto sans jp&amp;#34; , &amp;#34;noto sans kr&amp;#34; , &amp;#34;helvetica&amp;#34; , &amp;#34;microsoft yahei&amp;#34; , &amp;#34;apple sd gothic neo&amp;#34; , &amp;#34;malgun gothic&amp;#34; , &amp;#34;맑은 고딕&amp;#34; , &amp;#34;dotum&amp;#34; , , sans-serif ; background-color: rgb(253 , 253 , 253)&quot;&gt;&lt;font style=&quot;font-size: 12px&quot;&gt;Calculate word vector means by sentences&lt;br&gt;&lt;/font&gt;&lt;/span&gt;" style="rounded=0;whiteSpace=wrap;html=1;" parent="WIyWlLk6GJQsqaUBKTNV-1" vertex="1">
          <mxGeometry x="480" y="170" width="90" height="60" as="geometry" />
        </mxCell>
        <mxCell id="wwjswEzwxjPf4cZ5HqY0-1" value="Input&lt;br&gt;Pretrained&lt;br&gt;Model" style="edgeStyle=orthogonalEdgeStyle;rounded=0;orthogonalLoop=1;jettySize=auto;html=1;exitX=1;exitY=0.5;exitDx=0;exitDy=0;exitPerimeter=0;entryX=0.5;entryY=0;entryDx=0;entryDy=0;fontSize=12;" edge="1" parent="WIyWlLk6GJQsqaUBKTNV-1" source="J0-ND052Ys1qhIWFqs_n-48" target="J0-ND052Ys1qhIWFqs_n-84">
          <mxGeometry x="-0.7312" y="30" relative="1" as="geometry">
            <Array as="points">
              <mxPoint x="840" y="254" />
              <mxPoint x="840" y="50" />
              <mxPoint x="1263" y="50" />
            </Array>
            <mxPoint y="1" as="offset" />
          </mxGeometry>
        </mxCell>
        <mxCell id="wwjswEzwxjPf4cZ5HqY0-10" style="edgeStyle=orthogonalEdgeStyle;rounded=0;orthogonalLoop=1;jettySize=auto;html=1;exitX=1;exitY=0.5;exitDx=0;exitDy=0;exitPerimeter=0;entryX=0.5;entryY=1;entryDx=0;entryDy=0;fontSize=12;" edge="1" parent="WIyWlLk6GJQsqaUBKTNV-1" source="J0-ND052Ys1qhIWFqs_n-48" target="J0-ND052Ys1qhIWFqs_n-91">
          <mxGeometry relative="1" as="geometry">
            <Array as="points">
              <mxPoint x="840" y="254" />
              <mxPoint x="840" y="470" />
              <mxPoint x="1263" y="470" />
            </Array>
          </mxGeometry>
        </mxCell>
        <mxCell id="wwjswEzwxjPf4cZ5HqY0-11" style="edgeStyle=orthogonalEdgeStyle;rounded=0;orthogonalLoop=1;jettySize=auto;html=1;exitX=1;exitY=0.5;exitDx=0;exitDy=0;exitPerimeter=0;entryX=0;entryY=0.5;entryDx=0;entryDy=0;fontSize=12;" edge="1" parent="WIyWlLk6GJQsqaUBKTNV-1" source="J0-ND052Ys1qhIWFqs_n-48" target="J0-ND052Ys1qhIWFqs_n-80">
          <mxGeometry relative="1" as="geometry">
            <Array as="points">
              <mxPoint x="840" y="254" />
              <mxPoint x="840" y="327" />
            </Array>
          </mxGeometry>
        </mxCell>
        <mxCell id="J0-ND052Ys1qhIWFqs_n-48" value="&lt;font style=&quot;font-size: 12px&quot;&gt;Pretrained&lt;br&gt;Model&lt;br&gt;DB&lt;/font&gt;" style="shape=cylinder3;whiteSpace=wrap;html=1;boundedLbl=1;backgroundOutline=1;size=15;fontSize=14;" parent="WIyWlLk6GJQsqaUBKTNV-1" vertex="1">
          <mxGeometry x="680" y="210" width="86" height="87" as="geometry" />
        </mxCell>
        <mxCell id="J0-ND052Ys1qhIWFqs_n-60" style="edgeStyle=orthogonalEdgeStyle;rounded=0;orthogonalLoop=1;jettySize=auto;html=1;fontSize=14;entryX=0;entryY=0.5;entryDx=0;entryDy=0;entryPerimeter=0;" parent="WIyWlLk6GJQsqaUBKTNV-1" source="J0-ND052Ys1qhIWFqs_n-54" target="J0-ND052Ys1qhIWFqs_n-48" edge="1">
          <mxGeometry relative="1" as="geometry">
            <Array as="points">
              <mxPoint x="323" y="390" />
              <mxPoint x="323" y="440" />
              <mxPoint x="630" y="440" />
              <mxPoint x="630" y="254" />
            </Array>
            <mxPoint x="723" y="300" as="targetPoint" />
          </mxGeometry>
        </mxCell>
        <mxCell id="J0-ND052Ys1qhIWFqs_n-54" value="&lt;font style=&quot;font-size: 12px&quot;&gt;Comprehensive&lt;br&gt;Keywords&lt;/font&gt;" style="rounded=0;whiteSpace=wrap;html=1;fontSize=14;" parent="WIyWlLk6GJQsqaUBKTNV-1" vertex="1">
          <mxGeometry x="179" y="360" width="101" height="60" as="geometry" />
        </mxCell>
        <mxCell id="J0-ND052Ys1qhIWFqs_n-59" value="Mapping" style="edgeStyle=orthogonalEdgeStyle;rounded=0;orthogonalLoop=1;jettySize=auto;html=1;entryX=0;entryY=0.5;entryDx=0;entryDy=0;entryPerimeter=0;fontSize=12;" parent="WIyWlLk6GJQsqaUBKTNV-1" source="J0-ND052Ys1qhIWFqs_n-55" target="J0-ND052Ys1qhIWFqs_n-48" edge="1">
          <mxGeometry x="-0.1885" y="30" relative="1" as="geometry">
            <mxPoint as="offset" />
            <Array as="points">
              <mxPoint x="630" y="390" />
              <mxPoint x="630" y="254" />
            </Array>
          </mxGeometry>
        </mxCell>
        <mxCell id="J0-ND052Ys1qhIWFqs_n-55" value="&lt;font style=&quot;font-size: 12px&quot;&gt;Clustered&lt;br&gt;Centroids&lt;/font&gt;" style="rounded=0;whiteSpace=wrap;html=1;fontSize=14;" parent="WIyWlLk6GJQsqaUBKTNV-1" vertex="1">
          <mxGeometry x="480" y="360" width="90" height="60" as="geometry" />
        </mxCell>
        <mxCell id="J0-ND052Ys1qhIWFqs_n-68" style="edgeStyle=orthogonalEdgeStyle;rounded=0;orthogonalLoop=1;jettySize=auto;html=1;entryX=0;entryY=0.5;entryDx=0;entryDy=0;fontSize=14;" parent="WIyWlLk6GJQsqaUBKTNV-1" source="J0-ND052Ys1qhIWFqs_n-69" target="J0-ND052Ys1qhIWFqs_n-84" edge="1">
          <mxGeometry relative="1" as="geometry" />
        </mxCell>
        <mxCell id="J0-ND052Ys1qhIWFqs_n-69" value="Tokenizing&lt;br&gt;(Mecab)" style="rounded=0;whiteSpace=wrap;html=1;" parent="WIyWlLk6GJQsqaUBKTNV-1" vertex="1">
          <mxGeometry x="1071" y="150" width="90" height="60" as="geometry" />
        </mxCell>
        <mxCell id="J0-ND052Ys1qhIWFqs_n-105" style="edgeStyle=orthogonalEdgeStyle;rounded=0;orthogonalLoop=1;jettySize=auto;html=1;entryX=0.5;entryY=0;entryDx=0;entryDy=0;fontSize=14;" parent="WIyWlLk6GJQsqaUBKTNV-1" source="J0-ND052Ys1qhIWFqs_n-80" target="J0-ND052Ys1qhIWFqs_n-104" edge="1">
          <mxGeometry relative="1" as="geometry" />
        </mxCell>
        <mxCell id="J0-ND052Ys1qhIWFqs_n-80" value="Pretrained&lt;br&gt;Sentiment&lt;br&gt;Analysis&lt;br&gt;(KoELECTRA)" style="rounded=0;whiteSpace=wrap;html=1;" parent="WIyWlLk6GJQsqaUBKTNV-1" vertex="1">
          <mxGeometry x="925" y="297" width="90" height="60" as="geometry" />
        </mxCell>
        <mxCell id="J0-ND052Ys1qhIWFqs_n-81" style="edgeStyle=orthogonalEdgeStyle;rounded=0;orthogonalLoop=1;jettySize=auto;html=1;entryX=0.5;entryY=0;entryDx=0;entryDy=0;fontSize=14;" parent="WIyWlLk6GJQsqaUBKTNV-1" source="J0-ND052Ys1qhIWFqs_n-84" target="J0-ND052Ys1qhIWFqs_n-86" edge="1">
          <mxGeometry relative="1" as="geometry">
            <Array as="points" />
          </mxGeometry>
        </mxCell>
        <mxCell id="J0-ND052Ys1qhIWFqs_n-84" value="Word&lt;br&gt;Embedding&lt;br&gt;(FastText)" style="rounded=0;whiteSpace=wrap;html=1;" parent="WIyWlLk6GJQsqaUBKTNV-1" vertex="1">
          <mxGeometry x="1217.5" y="150" width="90" height="60" as="geometry" />
        </mxCell>
        <mxCell id="J0-ND052Ys1qhIWFqs_n-99" style="edgeStyle=orthogonalEdgeStyle;rounded=0;orthogonalLoop=1;jettySize=auto;html=1;entryX=1;entryY=0.5;entryDx=0;entryDy=0;fontSize=14;" parent="WIyWlLk6GJQsqaUBKTNV-1" source="J0-ND052Ys1qhIWFqs_n-86" target="J0-ND052Ys1qhIWFqs_n-98" edge="1">
          <mxGeometry relative="1" as="geometry">
            <Array as="points">
              <mxPoint x="1207.5" y="270" />
              <mxPoint x="1207.5" y="270" />
            </Array>
          </mxGeometry>
        </mxCell>
        <mxCell id="J0-ND052Ys1qhIWFqs_n-86" value="&lt;span style=&quot;font-family: &amp;#34;noto sans&amp;#34; , &amp;#34;noto sans jp&amp;#34; , &amp;#34;noto sans kr&amp;#34; , &amp;#34;helvetica&amp;#34; , &amp;#34;microsoft yahei&amp;#34; , &amp;#34;apple sd gothic neo&amp;#34; , &amp;#34;malgun gothic&amp;#34; , &amp;#34;맑은 고딕&amp;#34; , &amp;#34;dotum&amp;#34; , , sans-serif ; background-color: rgb(253 , 253 , 253)&quot;&gt;&lt;font style=&quot;font-size: 12px&quot;&gt;Calculate word vector means by sentences&lt;br&gt;&lt;/font&gt;&lt;/span&gt;" style="rounded=0;whiteSpace=wrap;html=1;" parent="WIyWlLk6GJQsqaUBKTNV-1" vertex="1">
          <mxGeometry x="1217.5" y="240" width="90" height="60" as="geometry" />
        </mxCell>
        <mxCell id="J0-ND052Ys1qhIWFqs_n-97" style="edgeStyle=orthogonalEdgeStyle;rounded=0;orthogonalLoop=1;jettySize=auto;html=1;fontSize=14;entryX=1;entryY=0.5;entryDx=0;entryDy=0;exitX=0;exitY=0.5;exitDx=0;exitDy=0;" parent="WIyWlLk6GJQsqaUBKTNV-1" source="J0-ND052Ys1qhIWFqs_n-91" target="J0-ND052Ys1qhIWFqs_n-98" edge="1">
          <mxGeometry relative="1" as="geometry">
            <mxPoint x="1227.5" y="260" as="targetPoint" />
            <Array as="points">
              <mxPoint x="1187.5" y="375" />
              <mxPoint x="1187.5" y="270" />
            </Array>
          </mxGeometry>
        </mxCell>
        <mxCell id="J0-ND052Ys1qhIWFqs_n-91" value="&lt;font style=&quot;font-size: 12px&quot;&gt;&lt;span style=&quot;font-family: &amp;#34;noto sans&amp;#34; , &amp;#34;noto sans jp&amp;#34; , &amp;#34;noto sans kr&amp;#34; , &amp;#34;helvetica&amp;#34; , &amp;#34;microsoft yahei&amp;#34; , &amp;#34;apple sd gothic neo&amp;#34; , &amp;#34;malgun gothic&amp;#34; , &amp;#34;맑은 고딕&amp;#34; , &amp;#34;dotum&amp;#34; , , sans-serif ; background-color: rgb(253 , 253 , 253)&quot;&gt;Mapping data for keywords and clustered centroids&lt;/span&gt;&lt;br&gt;&lt;/font&gt;" style="rounded=0;whiteSpace=wrap;html=1;fontSize=14;" parent="WIyWlLk6GJQsqaUBKTNV-1" vertex="1">
          <mxGeometry x="1217.5" y="320" width="90" height="110" as="geometry" />
        </mxCell>
        <mxCell id="J0-ND052Ys1qhIWFqs_n-100" value="&lt;font style=&quot;font-size: 12px&quot;&gt;Mapping&lt;/font&gt;" style="edgeStyle=orthogonalEdgeStyle;rounded=0;orthogonalLoop=1;jettySize=auto;html=1;entryX=0.5;entryY=0;entryDx=0;entryDy=0;fontSize=14;" parent="WIyWlLk6GJQsqaUBKTNV-1" source="J0-ND052Ys1qhIWFqs_n-98" target="J0-ND052Ys1qhIWFqs_n-80" edge="1">
          <mxGeometry x="-0.1641" y="10" relative="1" as="geometry">
            <mxPoint as="offset" />
          </mxGeometry>
        </mxCell>
        <mxCell id="J0-ND052Ys1qhIWFqs_n-98" value="&lt;font style=&quot;font-size: 12px&quot;&gt;Most&lt;br&gt;Similar&lt;br&gt;Keyword&lt;br&gt;&lt;/font&gt;" style="whiteSpace=wrap;html=1;aspect=fixed;fontSize=14;" parent="WIyWlLk6GJQsqaUBKTNV-1" vertex="1">
          <mxGeometry x="1071" y="240" width="60" height="60" as="geometry" />
        </mxCell>
        <mxCell id="J0-ND052Ys1qhIWFqs_n-104" value="&lt;font style=&quot;font-size: 12px&quot;&gt;Output&lt;/font&gt;" style="rounded=0;whiteSpace=wrap;html=1;fontSize=14;" parent="WIyWlLk6GJQsqaUBKTNV-1" vertex="1">
          <mxGeometry x="922.5" y="390" width="95" height="60" as="geometry" />
        </mxCell>
        <mxCell id="wwjswEzwxjPf4cZ5HqY0-6" style="edgeStyle=orthogonalEdgeStyle;rounded=0;orthogonalLoop=1;jettySize=auto;html=1;exitX=0.5;exitY=1;exitDx=0;exitDy=0;entryX=0.5;entryY=0;entryDx=0;entryDy=0;fontSize=12;" edge="1" parent="WIyWlLk6GJQsqaUBKTNV-1" source="wwjswEzwxjPf4cZ5HqY0-3" target="wwjswEzwxjPf4cZ5HqY0-5">
          <mxGeometry relative="1" as="geometry" />
        </mxCell>
        <mxCell id="wwjswEzwxjPf4cZ5HqY0-3" value="Input&lt;br&gt;review&lt;br&gt;data" style="shape=parallelogram;perimeter=parallelogramPerimeter;whiteSpace=wrap;html=1;fixedSize=1;fontSize=12;" vertex="1" parent="WIyWlLk6GJQsqaUBKTNV-1">
          <mxGeometry x="920" y="60" width="100" height="60" as="geometry" />
        </mxCell>
        <mxCell id="wwjswEzwxjPf4cZ5HqY0-7" style="edgeStyle=orthogonalEdgeStyle;rounded=0;orthogonalLoop=1;jettySize=auto;html=1;exitX=1;exitY=0.5;exitDx=0;exitDy=0;entryX=0;entryY=0.5;entryDx=0;entryDy=0;fontSize=12;" edge="1" parent="WIyWlLk6GJQsqaUBKTNV-1" source="wwjswEzwxjPf4cZ5HqY0-5" target="J0-ND052Ys1qhIWFqs_n-69">
          <mxGeometry relative="1" as="geometry" />
        </mxCell>
        <mxCell id="wwjswEzwxjPf4cZ5HqY0-8" style="edgeStyle=orthogonalEdgeStyle;rounded=0;orthogonalLoop=1;jettySize=auto;html=1;entryX=0.5;entryY=0;entryDx=0;entryDy=0;fontSize=12;" edge="1" parent="WIyWlLk6GJQsqaUBKTNV-1" source="wwjswEzwxjPf4cZ5HqY0-5" target="J0-ND052Ys1qhIWFqs_n-80">
          <mxGeometry relative="1" as="geometry" />
        </mxCell>
        <mxCell id="wwjswEzwxjPf4cZ5HqY0-5" value="Preprocessed&lt;br&gt;data" style="rounded=0;whiteSpace=wrap;html=1;" vertex="1" parent="WIyWlLk6GJQsqaUBKTNV-1">
          <mxGeometry x="925" y="150" width="90" height="60" as="geometry" />
        </mxCell>
      </root>
    </mxGraphModel>
  </diagram>
</mxfile>
